<svg xmlns="http://www.w3.org/2000/svg" viewBox="0 0 188.98 188.98"><defs><clipPath id="A"><path d="M0 595.276h841.89V0H0z"/></clipPath><clipPath id="B"><path d="M0 595.276h841.89V0H0z" transform="translate(-666.5 -444.28)"/></clipPath></defs><g transform="matrix(1.3333 0 0 -1.3333 -703.46 617.53)"><g transform="translate(666.5 444.28)" clip-path="url(#B)"><path d="M0 0c-1.329 3.499-4.518 8.415-9.035 11.914-2.658 1.994-5.67 3.942-9.922 5.182-4.606 1.329-10.275 1.772-17.185 1.772h-63.779c-6.954 0-12.579-.443-17.141-1.816-4.252-1.284-7.397-3.189-9.966-5.182-4.517-3.455-7.706-8.415-9.079-11.914-2.746-7.043-2.791-15.015-2.791-20.064v-63.78c0-5.049.045-13.021 2.791-20.108 1.373-3.499 4.562-8.415 9.079-11.914 2.614-1.994 5.714-3.942 9.966-5.183 4.562-1.328 10.187-1.771 17.141-1.771h63.779c6.954 0 12.579.443 17.141 1.816 4.252 1.284 7.397 3.189 9.966 5.182 4.517 3.455 7.706 8.415 9.079 11.914 2.791 7.043 2.791 15.059 2.791 20.108v63.78C2.835-15.015 2.79-7.042.044.044z" fill="#007cff"/></g><path d="M631.49 359.26h-66.053v66.053h66.053zm-33.026 88.327c-30.542 0-55.301-24.759-55.301-55.3s24.759-55.301 55.301-55.301 55.3 24.759 55.3 55.301-24.759 55.3-55.3 55.3" clip-path="url(#A)" fill="#fafafc"/></g></svg>
