<?xml version="1.0" encoding="UTF-8" standalone="no"?>
<svg
   xmlns:dc="http://purl.org/dc/elements/1.1/"
   xmlns:cc="http://creativecommons.org/ns#"
   xmlns:rdf="http://www.w3.org/1999/02/22-rdf-syntax-ns#"
   xmlns:svg="http://www.w3.org/2000/svg"
   xmlns="http://www.w3.org/2000/svg"
   xmlns:sodipodi="http://sodipodi.sourceforge.net/DTD/sodipodi-0.dtd"
   xmlns:inkscape="http://www.inkscape.org/namespaces/inkscape"
   width="16cm"
   height="3.5cm"
   version="1.1"
   viewBox="0 0 160 35"
   id="svg60"
   sodipodi:docname="logo-white.svg"
   inkscape:version="0.92.4 (5da689c313, 2019-01-14)">
  <defs
     id="defs64" />
  <sodipodi:namedview
     pagecolor="#ffffff"
     bordercolor="#666666"
     borderopacity="1"
     objecttolerance="10"
     gridtolerance="10"
     guidetolerance="10"
     inkscape:pageopacity="0"
     inkscape:pageshadow="2"
     inkscape:window-width="1920"
     inkscape:window-height="1027"
     id="namedview62"
     showgrid="false"
     inkscape:zoom="1.668205"
     inkscape:cx="254.28083"
     inkscape:cy="13.890546"
     inkscape:window-x="-8"
     inkscape:window-y="-8"
     inkscape:window-maximized="1"
     inkscape:current-layer="svg60" />
  <metadata
     id="metadata2">
    <rdf:RDF>
      <cc:Work
         rdf:about="">
        <dc:format>image/svg+xml</dc:format>
        <dc:type
           rdf:resource="http://purl.org/dc/dcmitype/StillImage" />
        <dc:title></dc:title>
      </cc:Work>
    </rdf:RDF>
  </metadata>
  <rect
     style="opacity:1;vector-effect:none;fill:#ffffff;fill-opacity:1;stroke:none;stroke-width:0.10138859;stroke-linecap:round;stroke-linejoin:miter;stroke-miterlimit:4;stroke-dasharray:none;stroke-dashoffset:0;stroke-opacity:1;paint-order:normal"
     id="rect874"
     width="159.55524"
     height="34.575584"
     x="0.2223811"
     y="0.21220769"
     ry="6.1855402" />
  <g
     transform="translate(-2.5008952,-257.0005)"
     id="g58">
    <text
       x="54.790253"
       y="302.21173"
       font-size="19.756px"
       letter-spacing="0px"
       word-spacing="0px"
       style="font-size:19.75600052px;line-height:1.25;font-family:AMSansOneW00-Regular;letter-spacing:0px;word-spacing:0px;fill:#000000"
       xml:space="preserve"
       id="text4" />
    <text
       x="26.426273"
       y="263.69821"
       font-size="19.756px"
       letter-spacing="0px"
       word-spacing="0px"
       style="font-size:19.75600052px;line-height:1.25;font-family:AMSansOneW00-Regular;letter-spacing:0px;word-spacing:0px;fill:#000000"
       xml:space="preserve"
       id="text6" />
    <circle
       cx="26.625999"
       cy="276.62"
       r="0"
       style="fill:#ffffff;paint-order:normal"
       id="circle8" />
    <flowRoot
       font-size="74.667px"
       letter-spacing="0px"
       word-spacing="0px"
       style="font-size:74.66699982px;line-height:1.25;font-family:AMSansOneW00-Regular;letter-spacing:0px;word-spacing:0px;fill:#000000"
       xml:space="preserve"
       id="flowRoot16"><flowRegion
         id="flowRegion12"><rect
           x="-6.3639998"
           y="-35.688999"
           width="627.90997"
           height="272.94"
           id="rect10" /></flowRegion><flowPara
         id="flowPara14" /></flowRoot>    <g
       aria-label="Results"
       id="g32"
       style="fill:#0b409c;stroke-width:0.28663">
      <path
         d="m 45.021,285.37 v -22.329 h 10.418 q 2.1096,0 3.4078,0.48683 1.2982,0.48683 1.9473,1.428 0.64911,0.90875 0.8763,2.207 0.22719,1.2658 0.22719,2.7912 0,1.1035 -0.22719,2.4342 -0.19473,1.2982 -0.90876,2.4017 -0.68157,1.071 -2.1745,1.5579 l 3.6675,9.0226 h -3.8947 l -3.5701,-9.12 0.94121,0.48683 q -0.22719,0.0974 -0.55174,0.12982 -0.2921,0 -0.71402,0 h -5.7771 v 8.5034 z m 3.6675,-11.619 h 5.1929 q 1.5254,0 2.4017,-0.19473 0.8763,-0.22719 1.2982,-0.68157 0.42192,-0.45438 0.51929,-1.1684 0.12982,-0.71402 0.12982,-1.7526 0,-1.071 -0.12982,-1.7851 -0.09737,-0.74647 -0.48683,-1.1684 -0.38947,-0.45437 -1.2658,-0.64911 -0.84384,-0.19473 -2.3368,-0.19473 h -5.3227 z"
         id="path18"
         inkscape:connector-curvature="0" />
      <path
         d="m 73.702,285.63 q -2.1096,0 -3.5052,-0.25964 -1.3956,-0.2921 -2.2394,-0.90876 -0.84384,-0.64911 -1.2658,-1.6228 -0.42192,-1.0061 -0.55174,-2.4017 -0.12982,-1.428 -0.12982,-3.3105 0,-2.2394 0.22719,-3.8622 0.22719,-1.6228 0.94121,-2.6614 0.71402,-1.071 2.207,-1.5579 1.5254,-0.48683 4.0569,-0.48683 1.9798,0 3.2456,0.32456 1.2658,0.2921 1.9798,0.94121 0.74648,0.64911 1.071,1.6877 0.35701,1.0061 0.45438,2.4342 0.09737,1.3956 0.09737,3.1806 v 1.1035 h -10.808 q 0,1.4605 0.12982,2.3692 0.12982,0.8763 0.5842,1.3631 0.48683,0.45437 1.493,0.64911 1.0386,0.16227 2.7912,0.16227 0.74648,0 1.6228,-0.0324 0.90876,-0.0325 1.85,-0.12982 0.94121,-0.0974 1.6877,-0.16228 v 2.6938 q -0.71402,0.12982 -1.7201,0.22719 -1.0061,0.12982 -2.1096,0.19473 -1.1035,0.0649 -2.1096,0.0649 z m 3.278,-9.2498 v -0.61666 q 0,-1.4605 -0.19473,-2.3043 -0.16228,-0.8763 -0.5842,-1.2982 -0.38947,-0.45438 -1.1035,-0.5842 -0.68157,-0.16228 -1.7201,-0.16228 -1.2982,0 -2.0772,0.19473 -0.74648,0.16228 -1.1359,0.64911 -0.38947,0.48684 -0.55174,1.3631 -0.12982,0.84384 -0.12982,2.2394 h 8.0814 z"
         id="path20"
         inkscape:connector-curvature="0" />
      <path
         d="m 90.565,285.63 q -0.97367,0 -2.1096,-0.0649 -1.1035,-0.0649 -2.1745,-0.16228 -1.071,-0.0974 -1.9149,-0.22718 v -2.7263 q 0.55174,0.0324 1.2333,0.0974 0.71402,0.0649 1.493,0.0974 0.77898,0.0325 1.5254,0.0649 0.74648,0.0325 1.4605,0.0325 1.5579,0 2.2394,-0.19473 0.71402,-0.19474 0.90876,-0.64912 0.22719,-0.48683 0.22719,-1.2333 0,-0.84384 -0.16228,-1.2333 -0.12982,-0.38946 -0.51929,-0.51929 -0.38947,-0.12982 -1.2009,-0.22719 l -4.0245,-0.48683 q -1.5579,-0.16228 -2.3693,-0.71402 -0.77893,-0.5842 -1.071,-1.5579 -0.25964,-1.0061 -0.25964,-2.4342 0,-1.6552 0.45438,-2.6289 0.48683,-1.0061 1.3307,-1.493 0.8763,-0.48683 2.1096,-0.64911 1.2333,-0.16228 2.6938,-0.16228 0.90876,0 1.8824,0.0649 1.0061,0.0649 1.9149,0.19474 0.94121,0.0974 1.6228,0.22718 v 2.7263 q -0.77893,-0.0974 -1.6877,-0.16228 -0.90876,-0.0649 -1.8175,-0.0974 -0.8763,-0.0649 -1.6877,-0.0649 -1.2009,0 -1.9798,0.12982 -0.77893,0.0974 -1.1684,0.51929 -0.35701,0.38946 -0.35701,1.3631 0,0.74648 0.09737,1.1359 0.12982,0.35702 0.48683,0.51929 0.38947,0.12983 1.1684,0.22719 l 4.349,0.51929 q 1.2333,0.12982 1.9798,0.51929 0.77893,0.35701 1.1359,1.3307 0.38947,0.94121 0.38947,2.8885 0,1.6228 -0.42192,2.6289 -0.38947,0.97367 -1.2009,1.5254 -0.81139,0.51929 -1.9798,0.68157 -1.1359,0.19473 -2.5964,0.19473 z"
         id="path22"
         inkscape:connector-curvature="0" />
      <path
         d="m 106.37,285.63 q -1.7201,0 -2.8236,-0.38946 -1.071,-0.42193 -1.6552,-1.2333 -0.55175,-0.81139 -0.74648,-2.0122 -0.19474,-1.2008 -0.19474,-2.8236 v -10.353 h 3.4403 v 8.9902 q 0,1.6228 0.0974,2.5964 0.12982,0.94121 0.48683,1.428 0.35701,0.45438 1.0386,0.5842 0.71402,0.12983 1.8824,0.12983 1.2982,0 2.0772,-0.32456 0.779,-0.32456 1.1359,-0.97367 0.38947,-0.64911 0.48684,-1.6228 0.0974,-0.97367 0.0974,-2.2719 v -8.5358 h 3.4728 v 16.552 h -3.1806 l -0.12982,-2.207 h -0.22719 q -0.35701,0.77893 -1.0386,1.3307 -0.64911,0.55174 -1.6877,0.84384 -1.0386,0.2921 -2.5315,0.2921 z"
         id="path24"
         inkscape:connector-curvature="0" />
      <path
         d="m 120.29,285.37 v -24.114 h 3.4403 v 24.114 z"
         id="path26"
         inkscape:connector-curvature="0" />
      <path
         d="m 130.34,285.37 v -13.664 h -3.3105 v -2.8885 h 3.3105 v -4.8034 h 3.4403 v 4.8034 h 3.8622 v 2.8885 h -3.8622 v 13.664 z"
         id="path28"
         inkscape:connector-curvature="0" />
      <path
         d="m 146.73,285.63 q -0.97366,0 -2.1096,-0.0649 -1.1035,-0.0649 -2.1745,-0.16228 -1.071,-0.0974 -1.9149,-0.22718 v -2.7263 q 0.55175,0.0324 1.2333,0.0974 0.71402,0.0649 1.493,0.0974 0.77893,0.0325 1.5254,0.0649 0.74648,0.0325 1.4605,0.0325 1.5579,0 2.2394,-0.19473 0.71402,-0.19474 0.90876,-0.64912 0.22719,-0.48683 0.22719,-1.2333 0,-0.84384 -0.16228,-1.2333 -0.12982,-0.38946 -0.51929,-0.51929 -0.38947,-0.12982 -1.2009,-0.22719 l -4.0245,-0.48683 q -1.5579,-0.16228 -2.3693,-0.71402 -0.77893,-0.5842 -1.071,-1.5579 -0.25965,-1.0061 -0.25965,-2.4342 0,-1.6552 0.45438,-2.6289 0.48683,-1.0061 1.3307,-1.493 0.8763,-0.48683 2.1096,-0.64911 1.2333,-0.16228 2.6938,-0.16228 0.90876,0 1.8824,0.0649 1.0061,0.0649 1.9149,0.19474 0.94121,0.0974 1.6228,0.22718 v 2.7263 q -0.77894,-0.0974 -1.6877,-0.16228 -0.90876,-0.0649 -1.8175,-0.0974 -0.8763,-0.0649 -1.6877,-0.0649 -1.2009,0 -1.9798,0.12982 -0.77893,0.0974 -1.1684,0.51929 -0.35701,0.38946 -0.35701,1.3631 0,0.74648 0.0974,1.1359 0.12982,0.35702 0.48683,0.51929 0.38947,0.12983 1.1684,0.22719 l 4.349,0.51929 q 1.2333,0.12982 1.9798,0.51929 0.77894,0.35701 1.136,1.3307 0.38946,0.94121 0.38946,2.8885 0,1.6228 -0.42192,2.6289 -0.38947,0.97367 -1.2008,1.5254 -0.81139,0.51929 -1.9798,0.68157 -1.136,0.19473 -2.5964,0.19473 z"
         id="path30"
         inkscape:connector-curvature="0" />
    </g>
    <g
       transform="translate(6.0788,-127.06)"
       id="g56">
      <path
         transform="matrix(0.26458,0,0,0.26458,0,252)"
         d="m 73.146,540.47 c -16.043,0 -29.105,13.07 -29.105,29.113 0,5.3936 1.481,10.448 4.0508,14.785 l 3.2949,-6.0527 c -1.0784,-2.6972 -1.6777,-5.6423 -1.6777,-8.7324 0,-12.98 10.458,-23.443 23.438,-23.443 3.1676,0 6.1849,0.62677 8.9375,1.7578 l 6.0352,-3.2676 c -4.3787,-2.6387 -9.5026,-4.1602 -14.973,-4.1602 z m 25,14.225 -3.2891,6.0117 c 1.1159,2.7369 1.7344,5.7317 1.7344,8.877 0,12.98 -10.466,23.438 -23.445,23.438 -3.0448,0 -5.9465,-0.58228 -8.6113,-1.6309 l -6.0742,3.3066 c 4.3151,2.5343 9.3322,3.9941 14.686,3.9941 16.043,0 29.115,-13.064 29.115,-29.107 0,-5.4364 -1.5065,-10.528 -4.1152,-14.889 z"
         dominant-baseline="auto"
         style="color:#000000;font-variant-ligatures:normal;font-variant-position:normal;font-variant-caps:normal;font-variant-numeric:normal;font-variant-alternates:normal;font-feature-settings:normal;text-indent:0;text-decoration:none;text-decoration-line:none;text-decoration-style:solid;text-decoration-color:#000000;text-transform:none;text-orientation:mixed;dominant-baseline:auto;white-space:normal;shape-padding:0;isolation:auto;mix-blend-mode:normal;solid-color:#000000;fill:#0b409c;paint-order:normal;color-rendering:auto;image-rendering:auto;shape-rendering:auto"
         id="path34"
         inkscape:connector-curvature="0" />
      <path
         d="m 19.382,392.45 0.0024,1.0097"
         id="path36"
         inkscape:connector-curvature="0"
         style="fill:none;stroke:#0b409c;stroke-width:1.5;stroke-linecap:square;stroke-linejoin:round" />
      <path
         d="m 17.633,400.32 9.0296,-4.873 -4.963,9.006 z"
         id="path38"
         inkscape:connector-curvature="0"
         style="fill:#0b409c" />
      <path
         d="m 20.979,405.17 -8.9985,4.9172 4.8984,-9.0424 z"
         id="path40"
         inkscape:connector-curvature="0"
         style="fill:#0b409c" />
      <circle
         cx="19.334999"
         cy="402.70001"
         style="fill:none;stroke:#0b409c;stroke-width:1.5;stroke-linecap:round;stroke-linejoin:bevel;paint-order:normal"
         id="ellipse42"
         r="12.591" />
      <path
         d="m 29.699,402.76 -1.0118,0.0272"
         id="path44"
         inkscape:connector-curvature="0"
         style="fill:none;stroke:#0b409c;stroke-width:1.5;stroke-linecap:square;stroke-linejoin:round" />
      <path
         d="m 19.384,413.1 0.0018,-1.0077"
         id="path46"
         inkscape:connector-curvature="0"
         style="fill:none;stroke:#0b409c;stroke-width:1.5;stroke-linecap:square;stroke-linejoin:round" />
      <path
         d="m 9.0427,402.79 1.0118,-0.002"
         id="path48"
         inkscape:connector-curvature="0"
         style="fill:none;stroke:#0b409c;stroke-width:1.5;stroke-linecap:square;stroke-linejoin:round" />
      <rect
         x="15.764"
         y="387.07999"
         width="7.1427002"
         height="3.5999999"
         rx="0"
         ry="0.36379999"
         id="rect50"
         style="fill:#0b409c;stroke-width:0.07177" />
      <rect
         transform="rotate(-45)"
         x="-272.95999"
         y="283.16"
         width="3.8499999"
         height="2.3787999"
         rx="0"
         ry="0.35078999"
         id="rect52"
         style="fill:#0b409c;stroke-width:0.042832" />
      <rect
         transform="rotate(45)"
         x="296.45001"
         y="255.82001"
         width="3.8499999"
         height="2.3787999"
         rx="0"
         ry="0.37417999"
         id="rect54"
         style="fill:#0b409c;stroke-width:0.042832" />
    </g>
  </g>
</svg>
