<?xml version="1.0" encoding="UTF-8"?>
<svg width="14.086cm" height="2.8966cm" version="1.1" viewBox="0 0 140.86 28.966" xmlns="http://www.w3.org/2000/svg" xmlns:cc="http://creativecommons.org/ns#" xmlns:dc="http://purl.org/dc/elements/1.1/" xmlns:rdf="http://www.w3.org/1999/02/22-rdf-syntax-ns#">
<metadata>
<rdf:RDF>
<cc:Work rdf:about="">
<dc:format>image/svg+xml</dc:format>
<dc:type rdf:resource="http://purl.org/dc/dcmitype/StillImage"/>
<dc:title/>
</cc:Work>
</rdf:RDF>
</metadata>
<g transform="translate(-12.072 -260.02)">
<text x="54.790253" y="302.21173" fill="#000000" font-family="AMSansOneW00-Regular" font-size="19.756px" letter-spacing="0px" word-spacing="0px" style="line-height:1.25" xml:space="preserve"/>
<text x="26.426273" y="263.69821" fill="#000000" font-family="AMSansOneW00-Regular" font-size="19.756px" letter-spacing="0px" word-spacing="0px" style="line-height:1.25" xml:space="preserve"/>
<circle cx="26.626" cy="276.62" r="0" fill="#fff" style="paint-order:normal"/>
<flowRoot fill="#000000" font-family="AMSansOneW00-Regular" font-size="74.667px" letter-spacing="0px" word-spacing="0px" style="line-height:1.25" xml:space="preserve"><flowRegion><rect x="-6.364" y="-35.689" width="627.91" height="272.94"/></flowRegion><flowPara/></flowRoot>
<g fill="#0b409c" stroke-width=".28663" aria-label="Results">
<path d="m45.021 285.37v-22.329h10.418q2.1096 0 3.4078 0.48683t1.9473 1.428q0.64911 0.90875 0.8763 2.207 0.22719 1.2658 0.22719 2.7912 0 1.1035-0.22719 2.4342-0.19473 1.2982-0.90876 2.4017-0.68157 1.071-2.1745 1.5579l3.6675 9.0226h-3.8947l-3.5701-9.12 0.94121 0.48683q-0.22719 0.0974-0.55174 0.12982-0.2921 0-0.71402 0h-5.7771v8.5034zm3.6675-11.619h5.1929q1.5254 0 2.4017-0.19473 0.8763-0.22719 1.2982-0.68157 0.42192-0.45438 0.51929-1.1684 0.12982-0.71402 0.12982-1.7526 0-1.071-0.12982-1.7851-0.09737-0.74647-0.48683-1.1684-0.38947-0.45437-1.2658-0.64911-0.84384-0.19473-2.3368-0.19473h-5.3227z"/>
<path d="m73.702 285.63q-2.1096 0-3.5052-0.25964-1.3956-0.2921-2.2394-0.90876-0.84384-0.64911-1.2658-1.6228-0.42192-1.0061-0.55174-2.4017-0.12982-1.428-0.12982-3.3105 0-2.2394 0.22719-3.8622 0.22719-1.6228 0.94121-2.6614 0.71402-1.071 2.207-1.5579 1.5254-0.48683 4.0569-0.48683 1.9798 0 3.2456 0.32456 1.2658 0.2921 1.9798 0.94121 0.74648 0.64911 1.071 1.6877 0.35701 1.0061 0.45438 2.4342 0.09737 1.3956 0.09737 3.1806v1.1035h-10.808q0 1.4605 0.12982 2.3692 0.12982 0.8763 0.5842 1.3631 0.48683 0.45437 1.493 0.64911 1.0386 0.16227 2.7912 0.16227 0.74648 0 1.6228-0.0324 0.90876-0.0325 1.85-0.12982 0.94121-0.0974 1.6877-0.16228v2.6938q-0.71402 0.12982-1.7201 0.22719-1.0061 0.12982-2.1096 0.19473-1.1035 0.0649-2.1096 0.0649zm3.278-9.2498v-0.61666q0-1.4605-0.19473-2.3043-0.16228-0.8763-0.5842-1.2982-0.38947-0.45438-1.1035-0.5842-0.68157-0.16228-1.7201-0.16228-1.2982 0-2.0772 0.19473-0.74648 0.16228-1.1359 0.64911-0.38947 0.48684-0.55174 1.3631-0.12982 0.84384-0.12982 2.2394h8.0814z"/>
<path d="m90.565 285.63q-0.97367 0-2.1096-0.0649-1.1035-0.0649-2.1745-0.16228-1.071-0.0974-1.9149-0.22718v-2.7263q0.55174 0.0324 1.2333 0.0974 0.71402 0.0649 1.493 0.0974t1.5254 0.0649q0.74648 0.0325 1.4605 0.0325 1.5579 0 2.2394-0.19473 0.71402-0.19474 0.90876-0.64912 0.22719-0.48683 0.22719-1.2333 0-0.84384-0.16228-1.2333-0.12982-0.38946-0.51929-0.51929-0.38947-0.12982-1.2009-0.22719l-4.0245-0.48683q-1.5579-0.16228-2.3693-0.71402-0.77893-0.5842-1.071-1.5579-0.25964-1.0061-0.25964-2.4342 0-1.6552 0.45438-2.6289 0.48683-1.0061 1.3307-1.493 0.8763-0.48683 2.1096-0.64911t2.6938-0.16228q0.90876 0 1.8824 0.0649 1.0061 0.0649 1.9149 0.19474 0.94121 0.0974 1.6228 0.22718v2.7263q-0.77893-0.0974-1.6877-0.16228-0.90876-0.0649-1.8175-0.0974-0.8763-0.0649-1.6877-0.0649-1.2009 0-1.9798 0.12982-0.77893 0.0974-1.1684 0.51929-0.35701 0.38946-0.35701 1.3631 0 0.74648 0.09737 1.1359 0.12982 0.35702 0.48683 0.51929 0.38947 0.12983 1.1684 0.22719l4.349 0.51929q1.2333 0.12982 1.9798 0.51929 0.77893 0.35701 1.1359 1.3307 0.38947 0.94121 0.38947 2.8885 0 1.6228-0.42192 2.6289-0.38947 0.97367-1.2009 1.5254-0.81139 0.51929-1.9798 0.68157-1.1359 0.19473-2.5964 0.19473z"/>
<path d="m106.37 285.63q-1.7201 0-2.8236-0.38946-1.071-0.42193-1.6552-1.2333-0.55175-0.81139-0.74648-2.0122-0.19474-1.2008-0.19474-2.8236v-10.353h3.4403v8.9902q0 1.6228 0.0974 2.5964 0.12982 0.94121 0.48683 1.428 0.35701 0.45438 1.0386 0.5842 0.71402 0.12983 1.8824 0.12983 1.2982 0 2.0772-0.32456t1.1359-0.97367q0.38947-0.64911 0.48684-1.6228 0.0974-0.97367 0.0974-2.2719v-8.5358h3.4728v16.552h-3.1806l-0.12982-2.207h-0.22719q-0.35701 0.77893-1.0386 1.3307-0.64911 0.55174-1.6877 0.84384-1.0386 0.2921-2.5315 0.2921z"/>
<path d="m120.29 285.37v-24.114h3.4403v24.114z"/>
<path d="m130.34 285.37v-13.664h-3.3105v-2.8885h3.3105v-4.8034h3.4403v4.8034h3.8622v2.8885h-3.8622v13.664z"/>
<path d="m146.73 285.63q-0.97366 0-2.1096-0.0649-1.1035-0.0649-2.1745-0.16228-1.071-0.0974-1.9149-0.22718v-2.7263q0.55175 0.0324 1.2333 0.0974 0.71402 0.0649 1.493 0.0974 0.77893 0.0325 1.5254 0.0649 0.74648 0.0325 1.4605 0.0325 1.5579 0 2.2394-0.19473 0.71402-0.19474 0.90876-0.64912 0.22719-0.48683 0.22719-1.2333 0-0.84384-0.16228-1.2333-0.12982-0.38946-0.51929-0.51929-0.38947-0.12982-1.2009-0.22719l-4.0245-0.48683q-1.5579-0.16228-2.3693-0.71402-0.77893-0.5842-1.071-1.5579-0.25965-1.0061-0.25965-2.4342 0-1.6552 0.45438-2.6289 0.48683-1.0061 1.3307-1.493 0.8763-0.48683 2.1096-0.64911t2.6938-0.16228q0.90876 0 1.8824 0.0649 1.0061 0.0649 1.9149 0.19474 0.94121 0.0974 1.6228 0.22718v2.7263q-0.77894-0.0974-1.6877-0.16228-0.90876-0.0649-1.8175-0.0974-0.8763-0.0649-1.6877-0.0649-1.2009 0-1.9798 0.12982-0.77893 0.0974-1.1684 0.51929-0.35701 0.38946-0.35701 1.3631 0 0.74648 0.0974 1.1359 0.12982 0.35702 0.48683 0.51929 0.38947 0.12983 1.1684 0.22719l4.349 0.51929q1.2333 0.12982 1.9798 0.51929 0.77894 0.35701 1.136 1.3307 0.38946 0.94121 0.38946 2.8885 0 1.6228-0.42192 2.6289-0.38947 0.97367-1.2008 1.5254-0.81139 0.51929-1.9798 0.68157-1.136 0.19473-2.5964 0.19473z"/>
</g>
<g transform="translate(6.0788 -127.06)">
<path transform="matrix(.26458 0 0 .26458 0 252)" d="m73.146 540.47c-16.043 0-29.105 13.07-29.105 29.113 0 5.3936 1.481 10.448 4.0508 14.785l3.2949-6.0527c-1.0784-2.6972-1.6777-5.6423-1.6777-8.7324 0-12.98 10.458-23.443 23.438-23.443 3.1676 0 6.1849 0.62677 8.9375 1.7578l6.0352-3.2676c-4.3787-2.6387-9.5026-4.1602-14.973-4.1602zm25 14.225-3.2891 6.0117c1.1159 2.7369 1.7344 5.7317 1.7344 8.877 0 12.98-10.466 23.438-23.445 23.438-3.0448 0-5.9465-0.58228-8.6113-1.6309l-6.0742 3.3066c4.3151 2.5343 9.3322 3.9941 14.686 3.9941 16.043 0 29.115-13.064 29.115-29.107 0-5.4364-1.5065-10.528-4.1152-14.889z" color="#000000" color-rendering="auto" dominant-baseline="auto" fill="#0b409c" image-rendering="auto" shape-rendering="auto" solid-color="#000000" style="font-feature-settings:normal;font-variant-alternates:normal;font-variant-caps:normal;font-variant-ligatures:normal;font-variant-numeric:normal;font-variant-position:normal;isolation:auto;mix-blend-mode:normal;paint-order:normal;shape-padding:0;text-decoration-color:#000000;text-decoration-line:none;text-decoration-style:solid;text-indent:0;text-orientation:mixed;text-transform:none;white-space:normal"/>
<path d="m19.382 392.45 0.0024 1.0097" fill="none" stroke="#0b409c" stroke-linecap="square" stroke-linejoin="round" stroke-width="1.5"/>
<path d="m17.633 400.32 9.0296-4.873-4.963 9.006z" fill="#0b409c"/>
<path d="m20.979 405.17-8.9985 4.9172 4.8984-9.0424z" fill="#0b409c"/>
<ellipse cx="19.335" cy="402.7" rx="12.591" ry="12.591" fill="none" stroke="#0b409c" stroke-linecap="round" stroke-linejoin="bevel" stroke-width="1.5" style="paint-order:normal"/>
<path d="m29.699 402.76-1.0118 0.0272" fill="none" stroke="#0b409c" stroke-linecap="square" stroke-linejoin="round" stroke-width="1.5"/>
<path d="m19.384 413.1 0.0018-1.0077" fill="none" stroke="#0b409c" stroke-linecap="square" stroke-linejoin="round" stroke-width="1.5"/>
<path d="m9.0427 402.79 1.0118-2e-3" fill="none" stroke="#0b409c" stroke-linecap="square" stroke-linejoin="round" stroke-width="1.5"/>
<rect x="15.764" y="387.08" width="7.1427" height="3.6" rx="0" ry=".3638" fill="#0b409c" stroke-width=".07177"/>
<rect transform="rotate(-45)" x="-272.96" y="283.16" width="3.85" height="2.3788" rx="0" ry=".35079" fill="#0b409c" stroke-width=".042832"/>
<rect transform="rotate(45)" x="296.45" y="255.82" width="3.85" height="2.3788" rx="0" ry=".37418" fill="#0b409c" stroke-width=".042832"/>
</g>
</g>
</svg>
