<?xml version="1.0" encoding="UTF-8"?><svg id="Layer_2" xmlns="http://www.w3.org/2000/svg" viewBox="0 0 1800 247.88"><defs><style>.cls-1{fill:#007aff;}</style></defs><g id="Layer_1-2"><path class="cls-1" d="m484.99,83.66c0-56.81-32.71-80.22-82.63-80.22h-102.6v241h53.36v-80.22h34.08l39.25,80.22h61.97l-45.1-87.1c26.17-10.67,41.66-34.43,41.66-73.68Zm-84.35,34.08h-47.51V49.92h47.51c17.56,0,29.26,7.92,29.26,33.74s-11.36,34.08-29.26,34.08Z"/><polygon class="cls-1" points="536.63 244.44 704.64 244.44 704.64 197.96 589.99 197.96 589.99 147.01 687.43 147.01 687.43 100.53 589.99 100.53 589.99 49.92 704.64 49.92 704.64 3.44 536.63 3.44 536.63 244.44"/><path class="cls-1" d="m842.01,0c-57.15,0-92.61,24.79-92.61,76.09,0,37.87,24.79,61.62,66.1,68.86l39.59,6.89c14.46,2.41,24.44,10.33,24.44,23.41,0,19.28-12.74,26.17-37.53,26.17s-39.25-8.95-39.25-26.86v-5.85h-53.36v5.85c0,48.54,35.46,73.33,92.61,73.33s92.61-24.79,92.61-76.43c0-37.53-22.72-60.94-66.1-68.51l-39.59-6.89c-14.46-2.41-24.44-11.02-24.44-23.76,0-18.59,12.74-25.82,37.53-25.82s39.25,8.95,39.25,26.85v5.85h53.36v-5.85c0-48.54-35.46-73.33-92.61-73.33Z"/><polygon class="cls-1" points="1276.5 3.44 1223.13 3.44 1223.13 244.44 1391.14 244.44 1391.14 197.96 1276.5 197.96 1276.5 3.44"/><polygon class="cls-1" points="1391.14 49.92 1459.31 49.92 1459.31 244.44 1512.67 244.44 1512.67 49.92 1580.84 49.92 1580.84 3.44 1391.14 3.44 1391.14 49.92"/><path class="cls-1" d="m1800,79.19v-5.85c0-48.54-35.46-73.33-92.61-73.33s-92.61,24.79-92.61,76.09c0,37.87,24.79,61.62,66.1,68.86l39.59,6.89c14.46,2.41,24.44,10.33,24.44,23.41,0,19.28-12.74,26.17-37.53,26.17s-39.25-8.95-39.25-26.86v-5.85h-53.36v5.85c0,48.54,35.46,73.33,92.61,73.33s92.61-24.79,92.61-76.43c0-37.53-22.72-60.94-66.1-68.51l-39.59-6.89c-14.46-2.41-24.44-11.02-24.44-23.76,0-18.59,12.74-25.82,37.53-25.82s39.25,8.95,39.25,26.85v5.85h53.36Z"/><path class="cls-1" d="m123.94,0C55.49,0,0,55.49,0,123.94s55.49,123.94,123.94,123.94,123.94-55.49,123.94-123.94S192.39,0,123.94,0Zm74.02,197.96H49.92V49.92h148.04v148.04Z"/><path class="cls-1" d="m1121.57,160.44v40.97h-85.38V3.44h-53.36v156.99c0,57.84,37.87,87.45,95.71,87.45s96.4-29.61,96.4-87.45V3.44h-53.36v156.99Z"/></g></svg>